<?xml version="1.0" encoding="UTF-8" standalone="no"?>
<svg width="72px" height="72px" viewBox="0 0 72 72" version="1.1" xmlns="http://www.w3.org/2000/svg" xmlns:xlink="http://www.w3.org/1999/xlink" xmlns:sketch="http://www.bohemiancoding.com/sketch/ns">
    <!-- Generator: Sketch 3.2.2 (9983) - http://www.bohemiancoding.com/sketch -->
    <title>Oval 1 + Featured</title>
    <desc>Created with Sketch.</desc>
    <defs></defs>
    <g id="Welcome" stroke="none" stroke-width="1" fill="none" fill-rule="evenodd" sketch:type="MSPage">
        <g id="The-Catalog" sketch:type="MSArtboardGroup" transform="translate(-111.000000, -1427.000000)">
            <g id="Oval-1-+-Featured" sketch:type="MSLayerGroup" transform="translate(112.000000, 1428.000000)">
                <path d="M35,70 C54.3299662,70 70,54.3299662 70,35 C70,15.6700338 54.3299662,0 35,0 C15.6700338,0 0,15.6700338 0,35 C0,54.3299662 15.6700338,70 35,70 Z" id="Oval-1" stroke="#F6A623" sketch:type="MSShapeGroup"></path>
                <path d="M7.51067073,32.0182927 L7.51067073,40 L8.5726626,40 L8.5726626,36.3445122 L12.2393293,36.3445122 L12.2393293,35.4502033 L8.5726626,35.4502033 L8.5726626,32.9126016 L12.7535569,32.9126016 L12.7535569,32.0182927 L7.51067073,32.0182927 Z M14.2291667,32.0182927 L14.2291667,40 L19.7738821,40 L19.7738821,39.1056911 L15.2911585,39.1056911 L15.2911585,36.3445122 L19.4385163,36.3445122 L19.4385163,35.4502033 L15.2911585,35.4502033 L15.2911585,32.9126016 L19.7403455,32.9126016 L19.7403455,32.0182927 L14.2291667,32.0182927 Z M22.7362805,36.7022358 L24.0889228,32.9796748 L24.1112805,32.9796748 L25.441565,36.7022358 L22.7362805,36.7022358 Z M23.5299797,32.0182927 L20.4222561,40 L21.5066057,40 L22.4009146,37.5965447 L25.7769309,37.5965447 L26.6488821,40 L27.8226626,40 L24.7037602,32.0182927 L23.5299797,32.0182927 Z M29.6895325,32.9126016 L29.6895325,40 L30.7515244,40 L30.7515244,32.9126016 L33.4120935,32.9126016 L33.4120935,32.0182927 L27.0289634,32.0182927 L27.0289634,32.9126016 L29.6895325,32.9126016 Z M40.9690041,37.1158537 L40.9690041,32.0182927 L39.9070122,32.0182927 L39.9070122,37.1158537 C39.9070122,37.8313044 39.7300153,38.3734738 39.3760163,38.742378 C39.0220172,39.1112823 38.5059316,39.2957317 37.8277439,39.2957317 C37.1122932,39.2957317 36.5645344,39.1112823 36.1844512,38.742378 C35.804368,38.3734738 35.6143293,37.8313044 35.6143293,37.1158537 L35.6143293,32.0182927 L34.5523374,32.0182927 L34.5523374,37.1158537 C34.5523374,38.1815771 34.8411218,38.9585003 35.4186992,39.4466463 C35.9962766,39.9347924 36.7992835,40.1788618 37.8277439,40.1788618 C38.8338465,40.1788618 39.6089065,39.9236137 40.1529472,39.4131098 C40.6969878,38.9026058 40.9690041,38.1368615 40.9690041,37.1158537 L40.9690041,37.1158537 Z M42.9700203,32.0182927 L42.9700203,40 L44.0320122,40 L44.0320122,36.5904472 L46.6255081,36.5904472 C46.8863495,36.5904472 47.0950195,36.6295728 47.2515244,36.7078252 C47.4080292,36.7860776 47.5347217,36.8904126 47.6316057,37.0208333 C47.7284896,37.151254 47.7992884,37.3040303 47.8440041,37.4791667 C47.8887197,37.654303 47.9259822,37.8387524 47.9557927,38.0325203 C47.9930557,38.2262882 48.0154132,38.4237795 48.0228659,38.625 C48.0303185,38.8262205 48.037771,39.0143961 48.0452236,39.1895325 C48.0526762,39.3646689 48.0694443,39.5230345 48.0955285,39.6646341 C48.1216126,39.8062338 48.171917,39.9180213 48.2464431,40 L49.4314024,40 C49.3196133,39.865853 49.2357726,39.7112136 49.179878,39.5360772 C49.1239835,39.3609409 49.0811316,39.1764915 49.0513211,38.9827236 C49.0215107,38.7889557 49.0028794,38.5914644 48.9954268,38.3902439 C48.9879742,38.1890234 48.9767955,37.9915321 48.9618902,37.7977642 C48.9395324,37.6039963 48.9078593,37.4176838 48.8668699,37.2388211 C48.8258806,37.0599585 48.7625343,36.8978666 48.6768293,36.7525407 C48.5911242,36.6072147 48.4756105,36.4823853 48.3302846,36.3780488 C48.1849586,36.2737122 47.996783,36.1991872 47.765752,36.1544715 L47.765752,36.1321138 C48.2501718,35.9979668 48.6023024,35.7483081 48.8221545,35.3831301 C49.0420065,35.0179521 49.1519309,34.5931596 49.1519309,34.1087398 C49.1519309,33.4603626 48.9376715,32.9498664 48.5091463,32.5772358 C48.0806212,32.2046052 47.4862843,32.0182927 46.7261179,32.0182927 L42.9700203,32.0182927 Z M46.2454268,35.6961382 L44.0320122,35.6961382 L44.0320122,32.9126016 L46.6702236,32.9126016 C47.1695486,32.9126016 47.5309948,33.0392941 47.7545732,33.2926829 C47.9781515,33.5460717 48.089939,33.8739817 48.089939,34.2764228 C48.089939,34.5670746 48.0396346,34.8036915 47.9390244,34.9862805 C47.8384141,35.1688695 47.7042691,35.3141932 47.5365854,35.4222561 C47.3689016,35.530319 47.1732735,35.6029808 46.9496951,35.6402439 C46.7261168,35.677507 46.491363,35.6961382 46.2454268,35.6961382 L46.2454268,35.6961382 Z M50.9293699,32.0182927 L50.9293699,40 L56.4740854,40 L56.4740854,39.1056911 L51.9913618,39.1056911 L51.9913618,36.3445122 L56.1387195,36.3445122 L56.1387195,35.4502033 L51.9913618,35.4502033 L51.9913618,32.9126016 L56.4405488,32.9126016 L56.4405488,32.0182927 L50.9293699,32.0182927 Z M59.1234756,39.1056911 L59.1234756,32.9126016 L60.9120935,32.9126016 C61.4039659,32.9126016 61.8175796,32.9815373 62.1529472,33.1194106 C62.4883147,33.2572839 62.7621941,33.4585014 62.9745935,33.7230691 C63.1869929,33.9876368 63.3397692,34.3080943 63.4329268,34.6844512 C63.5260845,35.0608081 63.5726626,35.4874637 63.5726626,35.9644309 C63.5726626,36.4563033 63.5223582,36.8755064 63.421748,37.2220528 C63.3211377,37.5685993 63.1925821,37.8573837 63.0360772,38.0884146 C62.8795724,38.3194456 62.7025755,38.5020318 62.5050813,38.6361789 C62.3075871,38.7703259 62.1082327,38.8727977 61.9070122,38.9435976 C61.7057917,39.0143974 61.5157529,39.0591124 61.3368902,39.0777439 C61.1580276,39.0963754 61.0089776,39.1056911 60.8897358,39.1056911 L59.1234756,39.1056911 Z M58.0614837,32.0182927 L58.0614837,40 L60.8003049,40 C61.4635873,40 62.0374298,39.9068437 62.5218496,39.7205285 C63.0062694,39.5342132 63.4049781,39.26406 63.7179878,38.910061 C64.0309975,38.5560619 64.262025,38.1200907 64.4110772,37.6021341 C64.5601295,37.0841776 64.6346545,36.4898408 64.6346545,35.8191057 C64.6346545,34.5372565 64.3030182,33.5833365 63.6397358,32.9573171 C62.9764533,32.3312977 62.0299858,32.0182927 60.8003049,32.0182927 L58.0614837,32.0182927 Z" id="FEATURED" fill="#F6A623" sketch:type="MSShapeGroup"></path>
            </g>
        </g>
    </g>
</svg>