<?xml version="1.0" encoding="utf-8"?>
<!-- Generator: Adobe Illustrator 18.1.0, SVG Export Plug-In . SVG Version: 6.00 Build 0)  -->
<svg version="1.1" id="Layer_1" xmlns="http://www.w3.org/2000/svg" xmlns:xlink="http://www.w3.org/1999/xlink" x="0px" y="0px"
	 viewBox="0 638 612 113.4" enable-background="new 0 638 612 113.4" xml:space="preserve">
<path fill="#D2691B" d="M43.7,713.3c-15.3,0-28.2-4.6-38.6-11.2l8.3-12.4c10,5.8,20.9,9.5,30.6,9.5c10.7,0,14.8-3.6,14.8-7.8
	c0-11.7-50.3-4.6-50.3-30.6c0-12.6,14.3-22.8,35.2-22.8c15.1,0,26.2,4.9,35,11.7l-9.5,10.9c-7.3-5.1-17.2-8.5-26.2-8.5
	c-9.5,0-15.1,3.2-15.1,7.3c0,11.4,50.8,5.3,50.8,30.4C79.2,703.6,63.9,713.3,43.7,713.3"/>
<path fill="#D2691B" d="M137.5,710.8l-21.6-27.2l-10.2,10v17.2H85v-70.4h20.6v32.8l30.6-32.8h23.3l-30.1,30.1
	c1.2,1,31.1,40.6,31.1,40.6L137.5,710.8L137.5,710.8z"/>
<rect x="166.6" y="640.4" fill="#D2691B" width="20.6" height="70.4"/>
<polygon fill="#D2691B" points="401.4,682.9 401.4,710.8 381,710.8 381,682.9 349.7,640.4 372.5,640.4 392.2,669.3 410.9,640.4 
	433,640.4 "/>
<polygon fill="#4D555B" points="476,656.2 476,710.8 455.4,710.8 455.4,656.2 429.4,656.2 440.3,640.4 502,640.4 502,656.2 "/>
<rect x="511.2" y="640.4" fill="#4D555B" width="20.6" height="70.4"/>
<polygon fill="#4D555B" points="541.6,710.8 541.6,640.4 605.4,640.4 605.4,655.7 562.2,655.7 562.2,668.8 593.1,668.8 593.1,680.7 
	562.2,680.7 562.2,694.8 605.4,694.8 605.4,710.8 "/>
<g>
	<polygon fill="#D2691B" points="266.4,705.7 269.1,646 264.7,640.4 251.4,640.4 251.4,682.9 246.5,677.1 214.9,640.4 197,640.4 
		197,710.8 216.6,710.8 216.6,668.3 221.5,674.4 253.5,710.8 270.8,710.8 270.8,710.8 	"/>
	<polygon fill="#D2691B" points="325.4,640.4 325.4,682.9 320.6,677.1 289,640.4 278.6,640.4 274.2,646 277.1,705.7 272.7,710.8 
		290.5,710.8 290.5,668.3 295.6,674.4 327.6,710.8 344.9,710.8 344.9,640.4 	"/>
</g>
<g>
	<path fill="#4D555B" d="M470.2,751.4v-20.9l-1.7,3.9l-8,17h-5.3l-8-17l-1.7-3.9v20.9h-8.3v-31.1h12.4l7.8,16.8l1.2,2.9l1.2-2.9
		l7.8-16.8h12.1v31.1C479.4,751.4,470.2,751.4,470.2,751.4z"/>
	<path fill="#4D555B" d="M486.9,751.4v-31.1h28.2v6.8h-19.2v5.8h13.6v5.1h-13.6v6.3h19.2v7H486.9z"/>
	<path fill="#4D555B" d="M538.2,751.4h-16v-31.1h16.3c10.7,0,16.8,6.1,16.8,13.8v3.6C554.9,745.3,548.9,751.4,538.2,751.4z
		 M545.9,733.9c0-4.4-2.9-7.3-8-7.3h-6.6v18.5h6.6c5.1,0,8-2.9,8-7.3V733.9z"/>
	<path fill="#4D555B" d="M561.5,751.4v-31.1h9v31.1H561.5z"/>
	<path fill="#4D555B" d="M602.3,751.4l-2.7-6.3h-13.4l-2.7,6.3h-8.5l13.6-31.1h9.2l13.8,31.1C612,751.4,602.3,751.4,602.3,751.4z
		 M593.1,728.6l-4.6,10.9h9L593.1,728.6z"/>
</g>
</svg>
