<?xml version="1.0" encoding="utf-8"?>
<!-- Generator: Adobe Illustrator 18.1.0, SVG Export Plug-In . SVG Version: 6.00 Build 0)  -->
<svg version="1.1" id="Layer_1" xmlns="http://www.w3.org/2000/svg" xmlns:xlink="http://www.w3.org/1999/xlink" x="0px" y="0px"
	 viewBox="0 149.5 252 46.7" enable-background="new 0 149.5 252 46.7" xml:space="preserve">
<g>
	<path fill="#FFFFFF" d="M18,180.5c-6.3,0-11.6-1.9-15.9-4.6l3.4-5.1c4.1,2.4,8.6,3.9,12.6,3.9c4.4,0,6.1-1.5,6.1-3.2
		c0-4.8-20.7-1.9-20.7-12.6c0-5.2,5.9-9.4,14.5-9.4c6.2,0,10.8,2,14.4,4.8l-3.9,4.5c-3-2.1-7.1-3.5-10.8-3.5c-3.9,0-6.2,1.3-6.2,3
		c0,4.7,20.9,2.2,20.9,12.5C32.6,176.5,26.3,180.5,18,180.5"/>
	<path fill="#FFFFFF" d="M56.6,179.5l-8.9-11.2l-4.2,4.1v7.1H35v-29h8.5V164l12.6-13.5h9.6l-12.4,12.4c0.5,0.4,12.8,16.7,12.8,16.7
		L56.6,179.5L56.6,179.5z"/>
	<rect x="68.6" y="150.5" fill="#FFFFFF" width="8.5" height="29"/>
	<polygon fill="#FFFFFF" points="165.3,168 165.3,179.5 156.9,179.5 156.9,168 144,150.5 153.4,150.5 161.5,162.3 169.2,150.5 
		178.3,150.5 	"/>
	<polygon fill="#FFFFFF" points="196,157 196,179.5 187.5,179.5 187.5,157 176.8,157 181.3,150.5 206.7,150.5 206.7,157 	"/>
	<rect x="210.5" y="150.5" fill="#FFFFFF" width="8.5" height="29"/>
	<polygon fill="#FFFFFF" points="223,179.5 223,150.5 249.3,150.5 249.3,156.8 231.5,156.8 231.5,162.2 244.2,162.2 244.2,167.1 
		231.5,167.1 231.5,172.9 249.3,172.9 249.3,179.5 	"/>
	<g>
		<polygon fill="#FFFFFF" points="109.7,177.4 110.8,152.8 109,150.5 103.5,150.5 103.5,168 101.5,165.6 88.5,150.5 81.1,150.5 
			81.1,179.5 89.2,179.5 89.2,162 91.2,164.5 104.4,179.5 111.5,179.5 111.5,179.5 		"/>
		<polygon fill="#FFFFFF" points="134,150.5 134,168 132,165.6 119,150.5 114.7,150.5 112.9,152.8 114.1,177.4 112.3,179.5 
			119.6,179.5 119.6,162 121.7,164.5 134.9,179.5 142,179.5 142,150.5 		"/>
	</g>
	<g>
		<path fill="#FFFFFF" d="M193.6,196.2v-8.6l-0.7,1.6l-3.3,7h-2.2l-3.3-7l-0.7-1.6v8.6H180v-12.8h5.1l3.2,6.9l0.5,1.2l0.5-1.2
			l3.2-6.9h5v12.8C197.4,196.2,193.6,196.2,193.6,196.2z"/>
		<path fill="#FFFFFF" d="M200.5,196.2v-12.8h11.6v2.8h-7.9v2.4h5.6v2.1h-5.6v2.6h7.9v2.9H200.5z"/>
		<path fill="#FFFFFF" d="M221.6,196.2H215v-12.8h6.7c4.4,0,6.9,2.5,6.9,5.7v1.5C228.5,193.7,226,196.2,221.6,196.2z M224.8,189
			c0-1.8-1.2-3-3.3-3h-2.7v7.6h2.7c2.1,0,3.3-1.2,3.3-3V189z"/>
		<path fill="#FFFFFF" d="M231.2,196.2v-12.8h3.7v12.8H231.2z"/>
		<path fill="#FFFFFF" d="M248,196.2l-1.1-2.6h-5.5l-1.1,2.6h-3.5l5.6-12.8h3.8l5.7,12.8C252,196.2,248,196.2,248,196.2z
			 M244.2,186.8l-1.9,4.5h3.7L244.2,186.8z"/>
	</g>
</g>
</svg>
